<mxfile host="app.diagrams.net" modified="2023-11-17T18:44:29.490Z" agent="Mozilla/5.0 (Macintosh; Intel Mac OS X 10_15_7) AppleWebKit/605.1.15 (KHTML, like Gecko) Version/17.0 Safari/605.1.15" version="22.1.3" etag="UF3XWOOUazjc28c_whUK" type="github">
  <diagram name="Page-1" id="Xc0m9YNkdGTya4ySSCGn">
    <mxGraphModel>
      <root>
        <mxCell id="0" />
        <mxCell id="1" parent="0" />
      </root>
    </mxGraphModel>
  </diagram>
</mxfile>
